<svg width="128" height="40" viewBox="0 0 128 40" fill="none" xmlns="http://www.w3.org/2000/svg">
<path d="M30.0086 8.44212L3.77185 23.8419C2.32291 24.6992 0.515625 23.6355 0.515625 21.9209V13.3161C0.515625 12.5223 0.936285 11.792 1.60623 11.3951L20.5359 0.297677C21.2059 -0.0992256 22.0316 -0.0992256 22.7016 0.297677L30.0242 4.6001C31.4575 5.45741 31.4575 7.58481 30.0086 8.44212Z" fill="url(#paint0_linear_18858_20271)"/>
<path d="M1.58671 31.5582L27.839 16.1584C29.288 15.3011 31.0952 16.3648 31.0952 18.0794V26.6842C31.0952 27.478 30.6746 28.2083 30.0046 28.6052L11.0749 39.7026C10.405 40.0995 9.57925 40.0995 8.90931 39.7026L1.58671 35.4002C0.137765 34.5429 0.137765 32.4155 1.58671 31.5582Z" fill="url(#paint1_linear_18858_20271)"/>
<path d="M50.2243 26.5226C52.5924 26.5226 53.8856 25.4113 53.8856 24.2841C53.8856 22.6806 51.7667 22.2678 49.4608 21.855C46.968 21.4422 41.5774 20.5055 41.5774 15.6475C41.5774 10.837 45.9553 9.53516 49.4608 9.53516C52.9352 9.53516 55.132 10.6147 57.3132 12.25L54.9294 15.5681C53.2156 14.3297 51.237 13.4883 49.305 13.4883C48.0586 13.4883 45.8774 13.8693 45.8774 15.4728C45.8774 16.9175 48.0275 17.2509 49.8192 17.632C53.0598 18.3305 58.1856 18.7433 58.1856 24.1729C58.1856 28.3801 54.9762 30.4599 50.2866 30.4599C45.9865 30.4599 43.1665 28.904 41.3125 27.3005L43.5872 23.9507C45.0361 25.1731 47.9496 26.5226 50.2243 26.5226Z" fill="#040C23"/>
<path d="M61.4297 21.8698V9.85156H65.7142V21.8698C65.7142 25.6959 68.5965 26.6644 70.3259 26.6644C72.0085 26.6644 74.8908 25.6959 74.8908 21.8698V9.85156H79.1753V21.8698C79.1753 27.0454 75.701 30.427 70.3103 30.427C64.9352 30.427 61.4297 27.0454 61.4297 21.8698Z" fill="#040C23"/>
<path d="M91.7601 30.5696L81.7422 9.86719H86.4629L91.7601 21.0598L97.0885 9.86719H101.84L91.7601 30.5696Z" fill="#040C23"/>
<path d="M104.602 30.0623V9.82031H108.886V30.0623H104.602Z" fill="#040C23"/>
<path d="M121.736 13.6147V30.0623H117.421V13.6147H111.641V9.82031H127.501V13.6147H121.736Z" fill="#040C23"/>
<defs>
<linearGradient id="paint0_linear_18858_20271" x1="-1.37548" y1="12.07" x2="21.8344" y2="12.07" gradientUnits="userSpaceOnUse">
<stop stop-color="#00BBFF"/>
<stop offset="0.24" stop-color="#01B8FE"/>
<stop offset="0.64" stop-color="#0E7FE8"/>
<stop offset="1" stop-color="#1A48D3"/>
</linearGradient>
<linearGradient id="paint1_linear_18858_20271" x1="-1.37942" y1="27.9313" x2="21.8304" y2="27.9313" gradientUnits="userSpaceOnUse">
<stop stop-color="#00BBFF"/>
<stop offset="0.24" stop-color="#01B8FE"/>
<stop offset="0.64" stop-color="#0E7FE8"/>
<stop offset="1" stop-color="#1A48D3"/>
</linearGradient>
</defs>
</svg>
